<?xml version="1.0" standalone="no"?>
<!DOCTYPE svg PUBLIC "-//W3C//DTD SVG 20010904//EN"
 "http://www.w3.org/TR/2001/REC-SVG-20010904/DTD/svg10.dtd">
<svg version="1.0" xmlns="http://www.w3.org/2000/svg"
 width="64.000000pt" height="64.000000pt" viewBox="0 0 64.000000 64.000000"
 preserveAspectRatio="xMidYMid meet">

<g transform="translate(0.000000,64.000000) scale(0.100000,-0.100000)"
fill="#000000" stroke="none">
<path d="M184 480 c-80 -33 -139 -64 -139 -71 0 -8 59 -38 138 -72 l137 -58
98 42 c53 22 103 43 110 46 14 6 18 -117 3 -132 -5 -6 -12 -37 -16 -70 l-6
-61 41 4 c33 3 40 7 35 21 -12 31 -25 126 -25 188 0 53 3 64 21 73 31 17 20
29 -56 62 -39 16 -100 42 -136 58 l-66 28 -139 -58z"/>
<path d="M150 277 c0 -63 13 -79 84 -103 62 -21 156 -14 214 15 l42 21 0 60 0
59 -85 -36 -84 -36 -53 23 c-29 13 -68 29 -85 37 l-33 13 0 -53z"/>
</g>
</svg>
