<?xml version="1.0" encoding="UTF-8"?>
<svg version="1.1" xmlns="http://www.w3.org/2000/svg" width="2000" height='1414'>
<path d="M0 0 C660 0 1320 0 2000 0 C2000 466.62 2000 933.24 2000 1414 C1340 1414 680 1414 0 1414 C0 947.38 0 480.76 0 0 Z " fill="#F4F8FE" transform="translate(0,0)"/>
<path d="M0 0 C660 0 1320 0 2000 0 C2000 466.62 2000 933.24 2000 1414 C1766.36 1414 1532.72 1414 1292 1414 C1299.33744093 1406.66255907 1307.02906067 1399.89924305 1315.09375 1393.375 C1317.65316866 1391.28343207 1320.17632216 1389.15889954 1322.68896484 1387.01196289 C1329.34135422 1381.32892168 1336.14516662 1375.87523628 1343.05761719 1370.51269531 C1345.14175747 1368.88960165 1347.21580916 1367.25416104 1349.2890625 1365.6171875 C1358.58888408 1358.29505976 1368.04832594 1351.29204046 1377.77539062 1344.54931641 C1380.09371319 1342.93473399 1382.39940404 1341.30330875 1384.703125 1339.66796875 C1419.88972623 1314.74309839 1456.91675863 1292.21991329 1495 1272 C1495.95632324 1271.49098145 1496.91264648 1270.98196289 1497.89794922 1270.45751953 C1508.16798901 1265.00456525 1518.46478182 1259.65743691 1529.02539062 1254.78710938 C1532.87869585 1253.00951012 1536.67539868 1251.15955942 1540.4453125 1249.21166992 C1552.96728289 1242.76239673 1566.01945857 1237.44509443 1579 1232 C1579.89589844 1231.62391602 1580.79179688 1231.24783203 1581.71484375 1230.86035156 C1594.34152689 1225.57535817 1607.05887009 1220.60080416 1620.00195312 1216.14233398 C1620.67935547 1215.90716064 1621.35675781 1215.6719873 1622.0546875 1215.4296875 C1622.64749512 1215.22585449 1623.24030273 1215.02202148 1623.85107422 1214.81201172 C1625.6856353 1214.11878857 1627.49004593 1213.34663811 1629.28613281 1212.55908203 C1632.90930939 1210.99405408 1636.59375437 1209.78770707 1640.3671875 1208.625 C1641.04621124 1208.41439941 1641.72523499 1208.20379883 1642.42483521 1207.98681641 C1644.57381059 1207.32098972 1646.72430901 1206.66026165 1648.875 1206 C1651.70619351 1205.12649899 1654.5367456 1204.25093299 1657.3671875 1203.375 C1658.05021942 1203.16407211 1658.73325134 1202.95314423 1659.4369812 1202.73582458 C1662.8259487 1201.68636651 1666.20338885 1200.61402911 1669.5625 1199.47265625 C1704.19796057 1187.78043071 1740.12012812 1178.85458079 1776 1172 C1777.45060666 1171.71821491 1778.90112395 1171.43596947 1780.3515625 1171.15332031 C1837.72781886 1160 1837.72781886 1160 1853 1160 C1853 825.71 1853 491.42 1853 147 C1627.05369898 146.74309226 1627.05369898 146.74309226 1401.10742688 146.6248368 C1399.35318014 146.62454277 1397.5989334 146.62424806 1395.84468666 146.62395273 C1394.96509074 146.62380479 1394.08549482 146.62365684 1393.17924448 146.62350441 C1362.10447663 146.61823614 1331.0297091 146.61198834 1299.95494182 146.60402475 C1296.98911947 146.60327331 1294.02329711 146.60254759 1291.05747475 146.60182815 C1245.66196494 146.59072022 1200.26650597 146.5671042 1154.87103271 146.50646973 C1153.89538505 146.5051668 1152.91973739 146.50386388 1151.91452465 146.50252148 C1136.18496281 146.48143815 1120.45540248 146.45928574 1104.72584232 146.43699138 C1059.40019359 146.37276518 1014.07459743 146.31649067 968.74889755 146.31244564 C967.81610312 146.31235855 966.88330869 146.31227146 965.92224775 146.31218172 C945.441327 146.31041133 924.96040878 146.31270336 904.47948892 146.31883778 C896.23768662 146.32123482 887.99588421 146.3230475 879.75408173 146.32465935 C878.40106807 146.3249451 878.40106807 146.3249451 877.0207208 146.32523663 C847.99506378 146.33107649 818.96971518 146.28941607 789.94414155 146.22264945 C760.68671978 146.15556817 731.42966804 146.1354648 702.1721915 146.17993848 C698.1217612 146.18608377 694.07133032 146.19169483 690.02089882 146.19698334 C689.22695464 146.19803929 688.43301047 146.19909524 687.61500737 146.20018319 C675.08354006 146.21546983 662.55274481 146.18054319 650.02141589 146.12424966 C637.67455257 146.06983053 625.32864423 146.06954348 612.9817775 146.12534235 C606.38648414 146.15369327 599.79302319 146.15739655 593.19777563 146.09479744 C555.62834212 145.56107951 555.62834212 145.56107951 522.42145643 161.28798651 C519.09516987 163.63973127 515.6498232 165.3717862 511.984375 167.140625 C510.93378906 167.66793213 509.88320313 168.19523926 508.80078125 168.73852539 C507.79402344 169.23731201 506.78726562 169.73609863 505.75 170.25 C504.61433594 170.81517334 503.47867187 171.38034668 502.30859375 171.96264648 C488.97117097 178.5581059 475.50435544 184.92658463 461.7421875 190.58984375 C457.41000769 192.38048273 453.26716929 194.31012496 449.125 196.5 C443.29250226 199.46774995 437.42587513 201.77371394 431.23828125 203.88671875 C427.62111219 205.13025697 424.09170717 206.52962752 420.55078125 207.97265625 C416.61086398 209.55948357 412.63622155 211.05462324 408.6640625 212.55859375 C406.60442624 213.36883445 404.54999789 214.19386953 402.51733398 215.06958008 C393.7705486 218.82674407 384.848705 221.8458084 375.8125 224.8125 C374.19786201 225.34537477 372.58327936 225.87841727 370.96875 226.41162109 C367.76883473 227.46706469 364.56777789 228.5189385 361.36572266 229.56787109 C357.69242191 230.77133234 354.02356153 231.98777949 350.35546875 233.20703125 C277.98316344 257.05746873 201.78041752 272.49983136 126 280 C125.32007996 280.06834045 124.64015991 280.13668091 123.93963623 280.20709229 C82.65304076 284.34673135 41.58661117 285 0 285 C0 190.95 0 96.9 0 0 Z " fill="#F4F8FE" transform="translate(0,0)"/>
<path d="M0 0 C248.49 0 496.98 0 753 0 C751.35 1.65 749.7 3.3 748 5 C747.19175781 5.84304688 747.19175781 5.84304688 746.3671875 6.703125 C742.14442256 11.08065095 737.55885941 14.86872162 732.82421875 18.6796875 C730.14206334 20.88328406 727.56373579 23.16043825 725 25.5 C719.82485184 30.20468015 714.4379716 34.60436343 709 39 C707.76879913 40.01082767 706.53837382 41.02260049 705.30859375 42.03515625 C696.0647245 49.62894843 686.62448931 56.89688655 677 64 C675.4204903 65.17046144 673.84106613 66.3410383 672.26171875 67.51171875 C670.63309254 68.71652448 669.00419099 69.9209581 667.375 71.125 C666.64821045 71.6624585 665.9214209 72.19991699 665.17260742 72.75366211 C652.08995652 82.39054582 638.77409364 91.61977932 625.25 100.625 C624.39550262 101.19448364 623.54100525 101.76396729 622.66061401 102.35070801 C608.30411449 111.90777156 593.82705866 121.18536371 579 130 C577.4847876 130.90298828 577.4847876 130.90298828 575.93896484 131.82421875 C561.807751 140.22015135 547.4994865 148.25874873 533 156 C532.13213867 156.4655127 531.26427734 156.93102539 530.37011719 157.41064453 C514.02458851 166.15437865 497.35915878 174.23084055 480.65533447 182.26130676 C476.67973833 184.17554538 472.72894754 186.13249513 468.79460144 188.13027954 C466.17803912 189.39834817 463.48278461 190.38699326 460.75 191.375 C456.36372191 193.02048522 452.21702924 194.83676047 448.0625 197 C442.62544861 199.80112291 437.08657926 201.86439114 431.30859375 203.8515625 C427.67125727 205.11410905 424.1152017 206.52005283 420.55078125 207.97265625 C416.61086398 209.55948357 412.63622155 211.05462324 408.6640625 212.55859375 C406.60442624 213.36883445 404.54999789 214.19386953 402.51733398 215.06958008 C393.7705486 218.82674407 384.848705 221.8458084 375.8125 224.8125 C374.19786201 225.34537477 372.58327936 225.87841727 370.96875 226.41162109 C367.76883473 227.46706469 364.56777789 228.5189385 361.36572266 229.56787109 C357.69242191 230.77133234 354.02356153 231.98777949 350.35546875 233.20703125 C277.98316344 257.05746873 201.78041752 272.49983136 126 280 C125.32007996 280.06834045 124.64015991 280.13668091 123.93963623 280.20709229 C82.65304076 284.34673135 41.58661117 285 0 285 C0 190.95 0 96.9 0 0 Z " fill="#114384" transform="translate(0,0)"/>
<path d="M0 0 C1.25127686 -0.00467285 2.50255371 -0.0093457 3.79174805 -0.01416016 C4.97679932 -0.01206543 6.16185059 -0.0099707 7.3828125 -0.0078125 C8.93959717 -0.00612061 8.93959717 -0.00612061 10.52783203 -0.00439453 C14.65765171 0.15525568 18.76737354 0.66859706 22.875 1.125 C22.875 87.255 22.875 173.385 22.875 262.125 C-210.765 262.125 -444.405 262.125 -685.125 262.125 C-677.78755907 254.78755907 -670.09593933 248.02424305 -662.03125 241.5 C-659.47183134 239.40843207 -656.94867784 237.28389954 -654.43603516 235.13696289 C-647.78364578 229.45392168 -640.97983338 224.00023628 -634.06738281 218.63769531 C-631.98324253 217.01460165 -629.90919084 215.37916104 -627.8359375 213.7421875 C-618.53611592 206.42005976 -609.07667406 199.41704046 -599.34960938 192.67431641 C-597.03128681 191.05973399 -594.72559596 189.42830875 -592.421875 187.79296875 C-557.23527377 162.86809839 -520.20824137 140.34491329 -482.125 120.125 C-481.16867676 119.61598145 -480.21235352 119.10696289 -479.22705078 118.58251953 C-468.95701099 113.12956525 -458.66021818 107.78243691 -448.09960938 102.91210938 C-444.24630415 101.13451012 -440.44960132 99.28455942 -436.6796875 97.33666992 C-424.15771711 90.88739673 -411.10554143 85.57009443 -398.125 80.125 C-397.22910156 79.74891602 -396.33320312 79.37283203 -395.41015625 78.98535156 C-382.78347311 73.70035817 -370.06612991 68.72580416 -357.12304688 64.26733398 C-356.44564453 64.03216064 -355.76824219 63.7969873 -355.0703125 63.5546875 C-354.47750488 63.35085449 -353.88469727 63.14702148 -353.27392578 62.93701172 C-351.4393647 62.24378857 -349.63495407 61.47163811 -347.83886719 60.68408203 C-344.21569061 59.11905408 -340.53124563 57.91270707 -336.7578125 56.75 C-335.73927689 56.43409912 -335.73927689 56.43409912 -334.70016479 56.11181641 C-332.55118941 55.44598972 -330.40069099 54.78526165 -328.25 54.125 C-325.41880649 53.25149899 -322.5882544 52.37593299 -319.7578125 51.5 C-319.07478058 51.28907211 -318.39174866 51.07814423 -317.6880188 50.86082458 C-314.2990513 49.81136651 -310.92161115 48.73902911 -307.5625 47.59765625 C-274.18606309 36.33045143 -239.52422354 27.48784768 -204.94482422 20.85791016 C-202.26763294 20.34423713 -199.59248943 19.82396834 -196.91845703 19.29443359 C-146.20286672 9.27194035 -94.74512483 3.6190213 -43.125 1.125 C-41.37026367 1.03822998 -41.37026367 1.03822998 -39.58007812 0.94970703 C-26.38883682 0.31860988 -13.20516217 0.03125386 0 0 Z " fill="#0F4283" transform="translate(1977.125,1151.875)"/>
<path d="M0 0 C108.57 0 217.14 0 329 0 C325.37818769 4.22544769 322.00139334 8.10074976 318.0625 11.9375 C314.43438316 15.52223129 311.02448813 19.19672514 307.7109375 23.0703125 C305.2530504 25.84245001 302.60376396 28.40550689 299.96484375 31.00390625 C298.07769256 32.92107177 296.31314625 34.89575322 294.5625 36.9375 C289.56596173 42.72894209 284.21029186 48.17576113 278.375 53.125 C274.19614495 56.69968323 270.36687954 60.59580266 266.5 64.5 C262.18775464 68.84942892 257.89250009 73.12372541 253.20703125 77.07421875 C250.63007345 79.32278547 248.15109413 81.66259773 245.6640625 84.00976562 C239.89669197 89.45229414 234.07861986 94.70387073 227.87890625 99.65625 C224.32817679 102.54693884 220.8850477 105.5501795 217.4375 108.5625 C212.58358632 112.79275346 207.69332785 116.94250431 202.6328125 120.92578125 C200.61614184 122.51458262 198.61309166 124.11592288 196.6171875 125.73046875 C188.25735383 132.48426427 179.76395889 139.02708351 171.12744141 145.42285156 C168.9392165 147.04506098 166.75662588 148.67466203 164.57421875 150.3046875 C146.66717123 163.63728967 128.34694052 176.3495425 109.53759766 188.37597656 C106.89960084 190.06425391 104.26805123 191.76229514 101.63671875 193.4609375 C76.45188804 209.6665557 50.41242017 224.3464206 24.0625 238.5625 C22.47356934 239.41992798 22.47356934 239.41992798 20.85253906 240.29467773 C2.77430794 250 2.77430794 250 0 250 C0 167.5 0 85 0 0 Z " fill="#093B7C" transform="translate(0,0)"/>
<path d="M0 0 C-1.32 0.33 -2.64 0.66 -4 1 C-4 327.37 -4 653.74 -4 990 C443.81 990 891.62 990 1353 990 C1347.87210602 995.12789398 1343.13165182 996.33505108 1336.10926906 996.39098917 C1335.23552077 996.38280329 1334.36177247 996.3746174 1333.46154696 996.36618346 C1332.51373461 996.36932329 1331.56592227 996.37246312 1330.58938834 996.3756981 C1327.40075548 996.38257252 1324.21258261 996.36796153 1321.02398014 996.35352612 C1318.7100824 996.35403692 1316.39618464 996.3558668 1314.08228883 996.35889933 C1308.36251871 996.36294553 1302.6428911 996.35294812 1296.9231441 996.33718283 C1290.02509154 996.31897517 1283.12706514 996.31835772 1276.22899253 996.3182959 C1263.33730567 996.31767648 1250.44567021 996.3028073 1237.55400467 996.28024101 C1224.48716843 996.25742622 1211.42034848 996.24115879 1198.35349464 996.2329216 C1197.11623335 996.2321358 1197.11623335 996.2321358 1195.85397688 996.23133413 C1191.64822478 996.2286933 1187.44247262 996.22615937 1183.23672042 996.22366321 C1152.78279699 996.20536969 1122.32890312 996.17252639 1091.87500191 996.13199425 C1061.71193413 996.09189177 1031.54886981 996.05799956 1001.38578606 996.03244972 C1000.44935202 996.03165368 999.51291799 996.03085764 998.54810717 996.03003747 C989.99533911 996.02277025 981.44257099 996.01557968 972.8898028 996.00848107 C951.62771362 995.99083307 930.36562534 995.97222367 909.10353756 995.95296192 C908.13526376 995.95208551 907.16698997 995.95120911 906.16937455 995.95030614 C859.057976 995.90758057 811.94659097 995.85377882 764.83520508 995.79907227 C748.4846396 995.78009186 732.13407407 995.7611604 715.7835083 995.74243164 C714.76945716 995.74127005 713.75540602 995.74010845 712.71062606 995.73891166 C665.58307825 995.68499419 618.45552371 995.63896928 571.32796577 995.5949173 C568.24482469 995.59203412 565.16168362 995.58914575 562.07854255 995.58625566 C529.94808547 995.55613946 497.81762805 995.52640277 465.68717046 995.49683072 C464.76921744 995.49598583 463.85126441 995.49514094 462.90549463 995.49427045 C461.23524532 995.49273339 459.56499601 995.49119675 457.8947467 995.48966076 C302.26313969 995.34645883 146.6315838 995.17075469 -9 995 C-9 667.31 -9 339.62 -9 2 C-11.31 2 -13.62 2 -16 2 C-16 1.67 -16 1.34 -16 1 C-10.65097076 0.40801257 -5.39115154 -0.14187241 0 0 Z " fill="#B1C2D1" transform="translate(151,277)"/>
<path d="M0 0 C0.90972961 -0.00313983 1.81945922 -0.00627966 2.75675639 -0.00951464 C5.82161862 -0.01639682 8.88600369 -0.00177011 11.95083439 0.01265734 C14.17317898 0.01214661 16.39552358 0.01031707 18.61786616 0.00728413 C24.7603778 0.00275995 30.90272637 0.01708612 37.04521023 0.03432409 C43.02690849 0.04815938 49.00860145 0.04783176 54.99031199 0.04788756 C67.37739189 0.04850712 79.76441831 0.0633805 92.15147603 0.08594245 C104.70755162 0.10875415 117.26361027 0.12502348 129.81970417 0.13326186 C130.61218948 0.13378572 131.40467478 0.13430959 132.22117479 0.13484933 C136.26192272 0.13749015 140.30267072 0.14002408 144.34341874 0.14252025 C173.60545283 0.16081562 202.86745616 0.19366041 232.12946713 0.23418921 C261.11273153 0.27428938 290.09599232 0.30818228 319.07927334 0.33373374 C320.42889786 0.3349278 320.42889786 0.3349278 321.80578753 0.33614599 C330.02348446 0.34341319 338.24118146 0.35060376 346.45887854 0.35770239 C366.88813994 0.37535057 387.31740041 0.39395996 407.74666035 0.41322154 C408.67701535 0.41409795 409.60737036 0.41497435 410.56591794 0.41587732 C455.83425286 0.45860464 501.10257374 0.51240589 546.3708955 0.56711119 C562.08213806 0.58609157 577.79338067 0.60502301 593.50462353 0.62375182 C594.96622129 0.62549421 594.96622129 0.62549421 596.45734627 0.6272718 C641.74061071 0.68118757 687.02388216 0.72721325 732.30715714 0.77126616 C735.26958195 0.77414934 738.23200675 0.77703771 741.19443154 0.7799278 C772.06679577 0.81004393 802.93916036 0.83978063 833.81152511 0.86935274 C835.13453747 0.87062007 835.13453747 0.87062007 836.48427736 0.87191301 C838.08912363 0.87345007 839.69396991 0.87498671 841.29881619 0.8765227 C990.84109757 1.01972926 1140.38332577 1.19543085 1289.925583 1.36618346 C1290.255583 337.30618346 1290.585583 673.24618346 1290.925583 1019.36618346 C1288.945583 1019.36618346 1286.965583 1019.36618346 1284.925583 1019.36618346 C1284.925583 685.07618346 1284.925583 350.78618346 1284.925583 6.36618346 C854.935583 6.36618346 424.945583 6.36618346 -18.074417 6.36618346 C-12.41861049 0.71037696 -7.63486015 -0.07428604 0 0 Z " fill="#AFC1D0" transform="translate(568.0744169950485,140.63381654024124)"/>
<path d="M0 0 C-1.35008357 2.98911944 -2.86907999 5.14633726 -5.1328125 7.51171875 C-5.76517822 8.17768066 -6.39754395 8.84364258 -7.04907227 9.52978516 C-7.73412842 10.24183105 -8.41918457 10.95387695 -9.125 11.6875 C-10.59529913 13.23023334 -12.06534463 14.77320843 -13.53515625 16.31640625 C-14.2842627 17.10031738 -15.03336914 17.88422852 -15.80517578 18.69189453 C-17.82083828 20.81159122 -19.81903125 22.94567098 -21.80859375 25.08984375 C-29.71189735 33.59720178 -37.79981589 41.90499404 -46 50.125 C-46.48904816 50.61663635 -46.97809631 51.10827271 -47.48196411 51.61480713 C-52.62858962 56.7829893 -57.81701733 61.82628497 -63.35546875 66.57373047 C-65.33647968 68.29182219 -67.17903445 70.11399996 -69 72 C-72.10375954 75.14578336 -75.31876298 78.07294016 -78.66796875 80.953125 C-81.66270913 83.58167435 -84.57954296 86.28948596 -87.5 89 C-92.26632332 93.41481458 -97.06215123 97.77660188 -102 102 C-103.42699219 103.22783203 -103.42699219 103.22783203 -104.8828125 104.48046875 C-110.97440358 109.69594901 -117.1640111 114.75145624 -123.49780273 119.66967773 C-127.41754673 122.72419754 -131.25742999 125.86003351 -135.07104492 129.04589844 C-144.74936434 137.12437569 -154.78400486 144.61862235 -165 152 C-166.53539211 153.11556086 -168.07055148 154.23144213 -169.60546875 155.34765625 C-205.44339373 181.36602064 -242.51636346 205.06008297 -281 227 C-281.66821777 227.38365723 -282.33643555 227.76731445 -283.02490234 228.16259766 C-295.27231855 235.17875081 -307.82253385 241.60405388 -320.38916016 248.02392578 C-326.7770954 251.28981203 -333.15241618 254.55939767 -339.39624023 258.09643555 C-340.57985175 258.76328685 -341.78488621 259.39244311 -343 260 C-343 256.7 -343 253.4 -343 250 C-341.01806641 249.03513672 -341.01806641 249.03513672 -338.99609375 248.05078125 C-328.00670362 242.65435046 -317.23397285 236.99386448 -306.61108398 230.90722656 C-301.02207739 227.70488194 -295.40413354 224.57638546 -289.72924805 221.52880859 C-271.26420193 211.60832671 -253.47892969 200.55901149 -236 189 C-235.46594543 188.64726013 -234.93189087 188.29452026 -234.38165283 187.93109131 C-211.46051644 172.80090056 -211.46051644 172.80090056 -189 157 C-188.25814453 156.46246094 -187.51628906 155.92492187 -186.75195312 155.37109375 C-171.14316546 144.03567971 -155.86179663 132.2994179 -141 120 C-139.22931882 118.56231259 -137.45848108 117.12481798 -135.6875 115.6875 C-130.78515007 111.68030099 -125.97762286 107.5709642 -121.18554688 103.43334961 C-117.7400435 100.46550121 -114.24750654 97.5807184 -110.6875 94.75 C-104.19316279 89.48173235 -98.20106696 83.6856593 -92.14453125 77.92578125 C-88.72199178 74.67175523 -85.25209458 71.48061999 -81.75 68.3125 C-76.8747994 63.87258517 -72.21817989 59.25254691 -67.58422852 54.56494141 C-64.12478166 51.07981467 -60.56548617 47.78931173 -56.828125 44.6015625 C-51.36530666 39.81576011 -46.50758567 34.49973605 -41.78125 29 C-39.9257479 26.91662922 -37.98776899 24.95718793 -36 23 C-33.44130741 20.48044611 -31.01829389 17.91881218 -28.6875 15.1875 C-28.11515625 14.54167969 -27.5428125 13.89585938 -26.953125 13.23046875 C-25.46866859 11.53521953 -24.02829765 9.80124955 -22.609375 8.05078125 C-15.76008444 0.03739211 -10.43152223 -1.50762146 0 0 Z " fill="#3671B5" transform="translate(343,0)"/>
</svg>
